<svg width="50" height="50" viewBox="0 0 22 23" fill="none" xmlns="http://www.w3.org/2000/svg">
<path d="M21.0719 7.97927H14.9509C14.599 7.97927 14.3393 7.65045 14.0792 7.32119C13.8185 6.99102 13.5574 6.6604 13.2026 6.6604C12.8617 6.6604 12.6171 6.9657 12.3632 7.28252C12.0894 7.6242 11.8049 7.97927 11.3773 7.97927H0.928082C0.63688 8.81235 0.446115 9.69258 0.370306 10.6054H10.2182C10.5841 10.5482 10.8415 10.2265 11.0899 9.91614C11.3435 9.59933 11.5876 9.29429 11.928 9.29429C12.2829 9.29429 12.5438 9.62588 12.8041 9.95668C13.0381 10.254 13.2715 10.5507 13.5723 10.6054H21.6297C21.5538 9.69258 21.3631 8.81235 21.0719 7.97927Z" fill="#F7F7F7"/>
<path d="M21.474 13.5286H11.1116C10.7597 13.5286 10.5 13.1997 10.24 12.8705C9.97922 12.5403 9.7181 12.2097 9.36335 12.2097C9.02245 12.2097 8.77782 12.515 8.52395 12.8318C8.25018 13.1735 7.96566 13.5286 7.53808 13.5286H0.525936C0.703686 14.4519 1.00049 15.3328 1.39974 16.1547H6.37899C6.74487 16.0975 7.0023 15.7758 7.25069 15.4654C7.50422 15.1486 7.74834 14.8436 8.08874 14.8436C8.44365 14.8436 8.70456 15.1752 8.96487 15.506C9.19882 15.8033 9.43227 16.1 9.73302 16.1547H20.6002C20.9995 15.3328 21.2963 14.4519 21.474 13.5286Z" fill="#F7F7F7"/>
<path d="M18.7994 18.7767L6.97203 18.7732C6.62017 18.7732 6.36047 18.4444 6.10042 18.1151C5.83965 17.7849 5.57853 17.4543 5.22378 17.4543C4.88288 17.4543 4.63825 17.7596 4.38438 18.0764C4.11061 18.4181 3.82609 18.7732 3.39851 18.7732H3.19732C5.14445 20.8612 7.91974 22.1668 11 22.1668C14.0785 22.1668 16.8524 20.8627 18.7994 18.7767Z" fill="#F7F7F7"/>
<path d="M19.5387 5.10631C17.593 2.51199 14.4925 0.833496 11 0.833496C7.50748 0.833496 4.40701 2.51199 2.46125 5.10631H13.9882C14.354 5.04906 14.6115 4.72738 14.8599 4.417C15.1134 4.10019 15.3575 3.79515 15.6979 3.79515C16.0528 3.79515 16.3137 4.12674 16.574 4.45754C16.808 4.75486 17.0415 5.05155 17.3422 5.10631H19.5387Z" fill="#F7F7F7"/>
</svg>
